<?xml version="1.0" standalone="no"?>
<!DOCTYPE svg PUBLIC "-//W3C//DTD SVG 20010904//EN"
 "http://www.w3.org/TR/2001/REC-SVG-20010904/DTD/svg10.dtd">
<svg version="1.0" xmlns="http://www.w3.org/2000/svg"
 width="400.000000pt" height="400.000000pt" viewBox="0 0 400.000000 400.000000"
 preserveAspectRatio="xMidYMid meet">

<g transform="translate(0.000000,400.000000) scale(0.100000,-0.100000)"
fill="#000000" stroke="none">
<path d="M1770 3879 c-244 -28 -567 -148 -786 -290 -318 -208 -589 -534 -723
-871 -50 -126 -90 -259 -113 -373 -20 -96 -22 -141 -22 -355 0 -215 3 -258 22
-350 49 -229 162 -506 280 -685 99 -151 252 -321 377 -420 28 -22 52 -43 55
-46 3 -4 49 -37 104 -73 199 -133 466 -243 697 -287 160 -30 435 -37 584 -15
259 39 522 133 725 259 496 310 814 801 895 1381 54 391 -36 844 -238 1186
-99 168 -155 241 -305 393 -244 249 -529 412 -887 507 -170 45 -462 62 -665
39z m502 -569 c457 -93 850 -452 997 -910 39 -122 53 -205 58 -365 5 -138 2
-176 -16 -273 -21 -109 -81 -298 -106 -335 -11 -16 -17 -12 -63 45 -27 35 -62
74 -77 88 -42 39 -85 106 -85 133 0 27 28 55 127 127 70 50 83 73 58 100 -16
18 -1210 421 -1287 434 -53 10 -80 -20 -108 -119 -12 -44 -44 -154 -71 -245
-26 -91 -53 -184 -59 -207 -6 -24 -15 -43 -19 -43 -5 0 -31 20 -57 45 -69 64
-86 60 -145 -37 -26 -42 -50 -86 -54 -98 -10 -30 13 -58 99 -125 42 -32 76
-64 76 -72 0 -7 -27 -108 -61 -224 -33 -115 -59 -220 -57 -232 5 -35 46 -32
153 12 106 45 159 52 174 24 5 -10 30 -90 55 -178 26 -87 52 -165 58 -172 20
-25 -2 -27 -100 -8 -457 85 -843 407 -1008 842 -54 144 -76 257 -81 429 -4
127 -2 185 12 265 22 131 70 280 128 395 198 391 600 674 1032 724 104 13 315
2 427 -20z m507 -1764 l32 -33 -41 -33 -41 -33 -35 34 -34 33 32 33 c18 18 37
33 43 33 6 0 26 -15 44 -34z m-103 -143 c-20 -18 -39 -33 -43 -33 -5 0 -19 17
-32 37 l-23 36 33 28 34 28 33 -32 33 -32 -35 -32z m195 51 l34 -36 -30 -24
c-48 -38 -61 -39 -94 -2 -17 18 -30 35 -30 38 0 6 70 60 79 60 3 0 22 -16 41
-36z m-81 -115 c0 -9 -77 -59 -93 -59 -7 0 -21 14 -32 32 l-18 32 38 33 39 33
33 -32 c18 -17 33 -35 33 -39z m-430 -350 c69 -61 136 -121 150 -134 l24 -24
-119 -56 c-66 -31 -131 -61 -143 -68 -28 -13 -17 -27 -115 151 l-69 125 64 58
c34 32 68 58 73 59 6 0 67 -50 135 -111z"/>
</g>
</svg>
